<mxfile host="app.diagrams.net" modified="2021-08-15T08:05:06.867Z" agent="5.0 (Macintosh; Intel Mac OS X 10_15_7) AppleWebKit/605.1.15 (KHTML, like Gecko) Version/14.1.2 Safari/605.1.15" etag="cjJnp_glPpjvnyKpnsPV" version="14.9.6" type="github">
  <diagram id="C5RBs43oDa-KdzZeNtuy" name="Page-1">
    <mxGraphModel dx="298" dy="397" grid="1" gridSize="10" guides="1" tooltips="1" connect="1" arrows="1" fold="1" page="1" pageScale="1" pageWidth="827" pageHeight="1169" math="0" shadow="0">
      <root>
        <mxCell id="WIyWlLk6GJQsqaUBKTNV-0" />
        <mxCell id="WIyWlLk6GJQsqaUBKTNV-1" parent="WIyWlLk6GJQsqaUBKTNV-0" />
        <mxCell id="WIyWlLk6GJQsqaUBKTNV-2" value="" style="rounded=0;html=1;jettySize=auto;orthogonalLoop=1;fontSize=11;endArrow=block;endFill=0;endSize=8;strokeWidth=1;shadow=0;labelBackgroundColor=none;edgeStyle=orthogonalEdgeStyle;align=center;" parent="WIyWlLk6GJQsqaUBKTNV-1" source="WIyWlLk6GJQsqaUBKTNV-3" edge="1">
          <mxGeometry relative="1" as="geometry">
            <mxPoint x="277" y="170" as="targetPoint" />
          </mxGeometry>
        </mxCell>
        <mxCell id="WIyWlLk6GJQsqaUBKTNV-3" value="Start" style="rounded=1;whiteSpace=wrap;html=1;fontSize=12;glass=0;strokeWidth=1;shadow=0;align=center;" parent="WIyWlLk6GJQsqaUBKTNV-1" vertex="1">
          <mxGeometry x="217" y="80" width="120" height="40" as="geometry" />
        </mxCell>
        <mxCell id="Bb8tHRrM2m6Ux9XmuhY2-0" value="&lt;font face=&quot;Comic Sans MS&quot;&gt;Genarate a random&lt;br&gt;word&lt;/font&gt;" style="rounded=1;whiteSpace=wrap;html=1;align=center;" vertex="1" parent="WIyWlLk6GJQsqaUBKTNV-1">
          <mxGeometry x="217" y="180" width="120" height="60" as="geometry" />
        </mxCell>
        <mxCell id="Bb8tHRrM2m6Ux9XmuhY2-1" value="" style="endArrow=classic;html=1;align=center;" edge="1" parent="WIyWlLk6GJQsqaUBKTNV-1">
          <mxGeometry width="50" height="50" relative="1" as="geometry">
            <mxPoint x="276.5" y="240" as="sourcePoint" />
            <mxPoint x="276.5" y="300" as="targetPoint" />
            <Array as="points">
              <mxPoint x="276.5" y="240" />
            </Array>
          </mxGeometry>
        </mxCell>
        <mxCell id="Bb8tHRrM2m6Ux9XmuhY2-7" value="" style="edgeStyle=orthogonalEdgeStyle;rounded=0;orthogonalLoop=1;jettySize=auto;html=1;fontFamily=Comic Sans MS;fontSize=14;align=center;" edge="1" parent="WIyWlLk6GJQsqaUBKTNV-1" source="Bb8tHRrM2m6Ux9XmuhY2-3" target="Bb8tHRrM2m6Ux9XmuhY2-6">
          <mxGeometry relative="1" as="geometry" />
        </mxCell>
        <mxCell id="Bb8tHRrM2m6Ux9XmuhY2-3" value="&lt;font face=&quot;Comic Sans MS&quot;&gt;Generate as many black as letters in word&lt;/font&gt;" style="rounded=1;whiteSpace=wrap;html=1;align=center;" vertex="1" parent="WIyWlLk6GJQsqaUBKTNV-1">
          <mxGeometry x="217" y="310" width="120" height="60" as="geometry" />
        </mxCell>
        <mxCell id="Bb8tHRrM2m6Ux9XmuhY2-4" value="MOUSE&#xa;&#xa;-----" style="text;strokeColor=none;fillColor=none;align=center;verticalAlign=top;spacingLeft=4;spacingRight=4;overflow=hidden;rotatable=0;points=[[0,0.5],[1,0.5]];portConstraint=eastwest;rounded=0;fontStyle=1;fontSize=18;fontFamily=Comic Sans MS;spacingTop=1;" vertex="1" parent="WIyWlLk6GJQsqaUBKTNV-1">
          <mxGeometry x="560" y="166" width="136" height="88" as="geometry" />
        </mxCell>
        <mxCell id="Bb8tHRrM2m6Ux9XmuhY2-5" value="" style="endArrow=classic;html=1;fontFamily=Comic Sans MS;fontSize=14;align=center;" edge="1" parent="WIyWlLk6GJQsqaUBKTNV-1">
          <mxGeometry width="50" height="50" relative="1" as="geometry">
            <mxPoint x="277" y="380" as="sourcePoint" />
            <mxPoint x="276.5" y="460" as="targetPoint" />
          </mxGeometry>
        </mxCell>
        <mxCell id="Bb8tHRrM2m6Ux9XmuhY2-6" value="Ask the user to guess a letter&lt;br&gt;" style="rounded=1;whiteSpace=wrap;html=1;fontFamily=Comic Sans MS;fontSize=14;align=center;" vertex="1" parent="WIyWlLk6GJQsqaUBKTNV-1">
          <mxGeometry x="217" y="420" width="120" height="60" as="geometry" />
        </mxCell>
        <mxCell id="Bb8tHRrM2m6Ux9XmuhY2-8" value="" style="endArrow=classic;html=1;fontFamily=Comic Sans MS;fontSize=18;align=center;" edge="1" parent="WIyWlLk6GJQsqaUBKTNV-1">
          <mxGeometry width="50" height="50" relative="1" as="geometry">
            <mxPoint x="277" y="490" as="sourcePoint" />
            <mxPoint x="277" y="560" as="targetPoint" />
          </mxGeometry>
        </mxCell>
        <mxCell id="Bb8tHRrM2m6Ux9XmuhY2-17" value="" style="edgeStyle=segmentEdgeStyle;endArrow=classic;html=1;fontFamily=Comic Sans MS;fontSize=18;align=center;" edge="1" parent="WIyWlLk6GJQsqaUBKTNV-1">
          <mxGeometry width="50" height="50" relative="1" as="geometry">
            <mxPoint x="77" y="840" as="sourcePoint" />
            <mxPoint x="207" y="450" as="targetPoint" />
            <Array as="points">
              <mxPoint x="77" y="850" />
              <mxPoint x="77" y="450" />
            </Array>
          </mxGeometry>
        </mxCell>
        <mxCell id="Bb8tHRrM2m6Ux9XmuhY2-18" value="" style="edgeStyle=segmentEdgeStyle;endArrow=classic;html=1;fontFamily=Comic Sans MS;fontSize=18;align=center;" edge="1" parent="WIyWlLk6GJQsqaUBKTNV-1">
          <mxGeometry width="50" height="50" relative="1" as="geometry">
            <mxPoint x="457" y="840" as="sourcePoint" />
            <mxPoint x="347" y="450" as="targetPoint" />
            <Array as="points">
              <mxPoint x="457" y="500" />
              <mxPoint x="457" y="450" />
            </Array>
          </mxGeometry>
        </mxCell>
        <mxCell id="Bb8tHRrM2m6Ux9XmuhY2-21" value="" style="rhombus;whiteSpace=wrap;html=1;rounded=0;fontFamily=Comic Sans MS;fontSize=18;align=center;" vertex="1" parent="WIyWlLk6GJQsqaUBKTNV-1">
          <mxGeometry x="187" y="570" width="180" height="110" as="geometry" />
        </mxCell>
        <mxCell id="Bb8tHRrM2m6Ux9XmuhY2-22" value="&lt;font style=&quot;font-size: 12px&quot;&gt;Is the guessed letter in the word&lt;/font&gt;" style="text;html=1;strokeColor=none;fillColor=none;align=center;verticalAlign=middle;whiteSpace=wrap;rounded=0;fontFamily=Comic Sans MS;fontSize=18;" vertex="1" parent="WIyWlLk6GJQsqaUBKTNV-1">
          <mxGeometry x="202" y="597.5" width="150" height="55" as="geometry" />
        </mxCell>
        <mxCell id="Bb8tHRrM2m6Ux9XmuhY2-23" value="" style="edgeStyle=segmentEdgeStyle;endArrow=classic;html=1;fontFamily=Comic Sans MS;fontSize=18;align=center;" edge="1" parent="WIyWlLk6GJQsqaUBKTNV-1">
          <mxGeometry width="50" height="50" relative="1" as="geometry">
            <mxPoint x="427" y="790" as="sourcePoint" />
            <mxPoint x="377" y="620" as="targetPoint" />
            <Array as="points">
              <mxPoint x="427" y="680" />
              <mxPoint x="427" y="620" />
            </Array>
          </mxGeometry>
        </mxCell>
        <mxCell id="Bb8tHRrM2m6Ux9XmuhY2-24" value="" style="edgeStyle=segmentEdgeStyle;endArrow=classic;html=1;fontFamily=Comic Sans MS;fontSize=18;align=center;entryX=0;entryY=0.5;entryDx=0;entryDy=0;" edge="1" parent="WIyWlLk6GJQsqaUBKTNV-1" target="Bb8tHRrM2m6Ux9XmuhY2-21">
          <mxGeometry width="50" height="50" relative="1" as="geometry">
            <mxPoint x="100" y="840" as="sourcePoint" />
            <mxPoint x="117" y="620" as="targetPoint" />
            <Array as="points">
              <mxPoint x="100" y="620" />
              <mxPoint x="187" y="620" />
            </Array>
          </mxGeometry>
        </mxCell>
      </root>
    </mxGraphModel>
  </diagram>
</mxfile>
